<svg width="127" height="16" viewBox="0 0 127 16" fill="none" xmlns="http://www.w3.org/2000/svg">
  <path d="M14.0855 7.79044C14.0219 7.6259 13.8756 7.46136 13.6467 7.33479L1.151 0.158223C0.521449 -0.208833 0 0.0886087 0 0.816391V15.1822C0 15.91 0.521449 16.2074 1.151 15.8467L13.6531 8.66378C13.8756 8.53088 14.0219 8.37267 14.0919 8.20812C14.1173 8.13851 14.13 8.0689 14.13 7.99928C14.13 7.92967 14.1173 7.86006 14.0855 7.79044Z" fill="#FDDD2D"/>
  <path d="M21.5591 15.8403C21.6672 15.9479 21.7944 15.9985 21.947 15.9985H24.1536C24.319 15.9985 24.4589 15.9479 24.567 15.853C24.6751 15.7517 24.726 15.6188 24.726 15.4543V10.1067H28.1027C29.9532 10.1067 31.4094 9.68267 32.465 8.84097C33.5206 7.99295 34.0485 6.75255 34.0485 5.10713C34.0485 3.44905 33.5206 2.18335 32.465 1.31001C31.4158 0.436669 29.9595 0 28.109 0H21.9534C21.7817 0 21.6481 0.0506283 21.5527 0.158213C21.451 0.265799 21.4065 0.405027 21.4065 0.569569V15.448C21.4001 15.6062 21.4574 15.7328 21.5591 15.8403ZM24.6878 2.56306H27.9946C28.9166 2.56306 29.5971 2.78456 30.0486 3.22756C30.5001 3.67055 30.729 4.28442 30.729 5.08182C30.729 5.89187 30.4937 6.50574 30.0295 6.92342C29.5653 7.34111 28.8848 7.54995 27.9946 7.54995H24.6878V2.56306V2.56306Z" fill="#FDDD2D"/>
  <path d="M37.6669 15.448C37.6669 15.5999 37.7177 15.7328 37.8258 15.834C37.934 15.9416 38.0611 15.9922 38.2138 15.9922H40.325C40.4967 15.9922 40.6302 15.9416 40.7383 15.834C40.8464 15.7264 40.8973 15.5999 40.8973 15.448V9.96112H44.0451L46.983 15.3784C47.0911 15.5619 47.2119 15.7074 47.3518 15.8213C47.4917 15.9353 47.6825 15.9922 47.9242 15.9922H50.0354C50.1562 15.9922 50.2707 15.9479 50.3661 15.853C50.4678 15.7644 50.5187 15.6442 50.5187 15.5113C50.5187 15.4353 50.4933 15.353 50.4487 15.2581L47.1166 9.42952C48.0831 9.09411 48.8335 8.54986 49.3677 7.79676C49.9019 7.04366 50.1689 6.10704 50.1689 4.99955C50.1689 3.39843 49.6348 2.16436 48.5728 1.29735C47.5235 0.436669 46.0482 0 44.1659 0H38.2201C38.0484 0 37.9149 0.0506283 37.8195 0.158213C37.7177 0.265799 37.6732 0.405027 37.6732 0.569569L37.6669 15.448ZM40.9037 2.56306H44.096C45.0117 2.56306 45.7048 2.7719 46.1627 3.18958C46.6205 3.60727 46.8495 4.20848 46.8495 4.98056C46.8495 5.75897 46.6205 6.34753 46.1627 6.75255C45.7048 7.15758 45.0117 7.36009 44.096 7.36009H40.9037V2.56306Z" fill="#FDDD2D"/>
  <path d="M65.4626 13.3469H57.749V9.20803H64.7758C64.9412 9.20803 65.0811 9.1574 65.1892 9.06247C65.2973 8.96121 65.3481 8.82831 65.3481 8.66377V7.22086C65.3481 7.05632 65.2973 6.91709 65.1892 6.80951C65.0811 6.70192 64.9412 6.6513 64.7758 6.6513H57.749V2.65166H65.2845C65.4499 2.65166 65.5898 2.60103 65.6979 2.5061C65.806 2.40485 65.8569 2.27195 65.8569 2.1074V0.569569C65.8569 0.405027 65.806 0.265799 65.6979 0.158213C65.5834 0.0506283 65.4435 0 65.2782 0H55.1481C54.9764 0 54.8428 0.0506283 54.7475 0.158213C54.6457 0.265799 54.6012 0.405027 54.6012 0.569569V15.448C54.6012 15.5999 54.6521 15.7328 54.7602 15.834C54.8683 15.9416 54.9955 15.9922 55.1481 15.9922H65.4626C65.6279 15.9922 65.7678 15.9416 65.8759 15.8467C65.9841 15.7454 66.0349 15.6125 66.0349 15.448V13.8911C66.0349 13.7266 65.9777 13.5874 65.8759 13.4924C65.7678 13.3975 65.6279 13.3469 65.4626 13.3469Z" fill="#FDDD2D"/>
  <path d="M84.7753 0H82.9375C82.645 0 82.4161 0.145556 82.2507 0.436669L77.8184 8.61947L73.3861 0.436669C73.2144 0.145556 72.9855 0 72.693 0H70.8297C70.658 0 70.5245 0.0506283 70.4291 0.158213C70.3274 0.265799 70.2828 0.405027 70.2828 0.569569V15.448C70.2828 15.5999 70.3337 15.7328 70.4418 15.834C70.5499 15.9416 70.6771 15.9922 70.8297 15.9922H72.8074C72.9728 15.9922 73.1063 15.9416 73.208 15.834C73.3098 15.7264 73.3543 15.5999 73.3543 15.448V5.61974L76.5466 11.6508C76.7437 11.9863 77.0044 12.1508 77.3288 12.1508H78.2954C78.6324 12.1508 78.8868 11.9863 79.0521 11.6508L82.2444 5.61974V15.448C82.2444 15.5999 82.2953 15.7328 82.4034 15.834C82.5115 15.9416 82.6386 15.9922 82.7913 15.9922H84.769C84.9343 15.9922 85.0742 15.9416 85.1823 15.8467C85.2904 15.7454 85.3413 15.6125 85.3413 15.448V0.569569C85.3413 0.405027 85.2841 0.265799 85.1823 0.158213C85.0806 0.0506283 84.9407 0 84.7753 0Z" fill="#FDDD2D"/>
  <path d="M93.0612 0H90.8546C90.702 0 90.5685 0.0506283 90.4667 0.145556C90.3586 0.246813 90.3077 0.379712 90.3077 0.544254V15.448C90.3077 15.5999 90.3586 15.7328 90.4667 15.834C90.5748 15.9416 90.702 15.9922 90.8546 15.9922H93.0612C93.2266 15.9922 93.3665 15.9416 93.4619 15.834C93.5636 15.7264 93.6145 15.5999 93.6145 15.448V0.544254C93.6145 0.379712 93.5636 0.240485 93.4619 0.145556C93.3665 0.0506283 93.2266 0 93.0612 0Z" fill="#FDDD2D"/>
  <path d="M109.449 13.3469H101.735V9.20803H108.762C108.927 9.20803 109.067 9.1574 109.175 9.06247C109.283 8.96121 109.334 8.82831 109.334 8.66377V7.22086C109.334 7.05632 109.283 6.91709 109.175 6.80951C109.067 6.70192 108.927 6.6513 108.762 6.6513H101.735V2.65166H109.271C109.436 2.65166 109.576 2.60103 109.684 2.5061C109.792 2.40485 109.843 2.27195 109.843 2.1074V0.569569C109.843 0.405027 109.792 0.265799 109.684 0.158213C109.57 0.0506283 109.43 0 109.264 0H99.1343C98.9626 0 98.829 0.0506283 98.7337 0.158213C98.6319 0.265799 98.5874 0.405027 98.5874 0.569569V15.448C98.5874 15.5999 98.6383 15.7328 98.7464 15.834C98.8545 15.9416 98.9817 15.9922 99.1343 15.9922H109.449C109.614 15.9922 109.754 15.9416 109.862 15.8467C109.97 15.7454 110.021 15.6125 110.021 15.448V13.8911C110.021 13.7266 109.964 13.5874 109.862 13.4924C109.754 13.3975 109.614 13.3469 109.449 13.3469Z" fill="#FDDD2D"/>
  <path d="M114.307 15.8403C114.415 15.9479 114.542 15.9985 114.695 15.9985H116.806C116.978 15.9985 117.112 15.9479 117.22 15.8403C117.328 15.7328 117.379 15.6062 117.379 15.4543V9.96745H120.526L123.464 15.3847C123.572 15.5682 123.693 15.7138 123.833 15.8277C123.973 15.9416 124.164 15.9985 124.405 15.9985H126.517C126.638 15.9985 126.752 15.9542 126.847 15.8593C126.949 15.7707 127 15.6505 127 15.5176C127 15.4416 126.975 15.3594 126.93 15.2644L123.598 9.43585C124.564 9.10044 125.315 8.55619 125.849 7.80309C126.383 7.04999 126.65 6.11337 126.65 5.00587C126.65 3.40475 126.116 2.17069 125.054 1.30368C123.998 0.436669 122.523 0 120.641 0H114.695C114.523 0 114.39 0.0506283 114.294 0.158213C114.193 0.265799 114.148 0.405027 114.148 0.569569V15.448C114.142 15.6062 114.199 15.7328 114.307 15.8403ZM120.571 2.55673C121.487 2.55673 122.18 2.76557 122.638 3.18326C123.095 3.60094 123.324 4.20215 123.324 4.97423C123.324 5.75264 123.095 6.3412 122.638 6.74622C122.18 7.15125 121.487 7.35376 120.571 7.35376H117.379V2.55673H120.571Z" fill="#FDDD2D"/>
</svg>
